<svg height="666.667" viewBox="0 0 500 500" width="666.667" xmlns="http://www.w3.org/2000/svg"><path d="m0 250v250h500v-500h-500zm124.5-5.2 16 12.4.3-37.1.2-37.1h32v140.1l-6.7-5.4c-3.8-2.9-27.4-21.4-52.5-41l-45.8-35.6v73.9h-31v-138l35.8 27.7c19.6 15.3 42.9 33.3 51.7 40.1zm192.5-48.3v13.5h-105l.2 39.2.3 39.3 52.3.3 52.2.2v26l-63.4-.2-63.5-.3-3.6-3.5c-1.9-1.9-4-5-4.6-7-.7-2.3-.9-22.3-.7-57.2.3-52.6.3-53.7 2.4-56.5 1.1-1.5 3.6-3.8 5.4-5.1l3.3-2.2h124.7zm141.8-.3-.3 13.3-49.7.3-49.8.2v26h46.8c44.8 0 46.8.1 50 2 1.8 1.1 4.1 3.4 5.2 5.2 1.9 3.1 2 5.1 2 32.3s-.1 29.2-2 32.3c-1.1 1.8-3.4 4.1-5.2 5.2-3.2 1.9-5.2 2-66 2h-62.8v-26h104v-27h-44.6c-30.6 0-45.9-.4-48.5-1.1-2.1-.7-5.3-2.7-7.1-4.6l-3.3-3.4v-29.9c0-28.7.1-30 2.1-32.7 1.1-1.5 3.6-3.8 5.4-5.1l3.3-2.2h120.8z"/></svg>