<svg viewBox="0 0 408.6 174.3" xmlns="http://www.w3.org/2000/svg"><g fill="#fff"><path d="M153 157.1h-.4v4.5h8.2v-4.5zm.2-24.9h115.1v-25.3H168.1V30.8h100.2c-.1-10.6-.1-16.4 0-25.3h-2.9c-28.9.2-68.4-.1-97.4 0h-14.7c-8.1 0-14.7 6.6-14.7 14.7v1c-.1 19.6-.1 39.2 0 58.9v37.6c.1 7.9 6.6 14.4 14.6 14.5zm125.2-65.4c.1 2.3.4 5 1.7 6.9 3.9 5.8 10 7.5 16.7 7.5l61.5.2h19.9v25.5h-99.8v25.2h2.7c38.8.1 73.9.1 113.5.1 7.8-.3 14-6.8 14-14.7v-1.2c.1-13.8 0-30.3 0-44.1 0-.4.1-.9.1-1.3 0-8.1-6.6-14.7-14.8-14.7h-2.1c-27.4-.1-56.2.2-83.5 0V30.8h95.9V5.4c-1.4 0-5.8.1-6.8.1-34.9 0-68.6-.1-103.4-.2h-.8c-8.1 0-14.8 6.5-14.8 14.7v1c-.1 1.8-.1 3.7 0 5.5-.1 4.2-.1 10.4-.1 15.3.2 8.5-.2 16.6.1 25zm-167.7 90.3h-7.8v8.7h.1v.3h8.3v-9zm33.4 0h-8.2v9h8.2v-.2h.1v-8.7h-.1zm179.4 0h8.2v8.9h-8.2zm-41.5 0h-8.2v9h8.2v-.2h.2v-8.7h-.2zm-88.4 0h-8.2v4.5h8.2v-.3h.3v-4.1h-.3z"/><path d="M404 147.4H29.8V60.8l100.8 78.6c-.4-44.8.1-89.6-.3-133.9-10-.4-20.4.3-30 0v72.2L0 0v174.3h404zM98.3 169.7l-11.7-9.2v8.4h-3.4v-15.5l11.7 9.2v-8.4h3.4zm16.4-2.5c0 .5-.2.9-.5 1.2s-.7.5-1.2.5h-11.7c-.5 0-.9-.2-1.2-.5s-.5-.8-.5-1.2V156c0-.5.2-.9.5-1.2s.8-.5 1.2-.5H113c.5 0 .9.2 1.2.5s.5.8.5 1.2zm16.4-10h-11.6v8.9h11.6v2.9h-13.4c-.5 0-.9-.2-1.2-.5s-.5-.8-.5-1.2V156c0-.5.2-.9.5-1.2s.8-.5 1.2-.5h13.4zm16.4 10c0 .5-.2.9-.5 1.2s-.8.5-1.2.5h-11.6c-.5 0-.9-.2-1.2-.5s-.5-.8-.5-1.2V156c0-.5.2-.9.5-1.2s.8-.5 1.2-.5h11.6c1 0 1.7.8 1.7 1.8zm16.7-4.4c0 .5-.2.9-.5 1.2s-.8.5-1.2.5h-9.9v4.5h-3.4v-14.8h13.3c.5 0 .9.2 1.2.5s.5.8.5 1.2zm10.6-.9v7.1h-3.4v-7.1l-5.8-7.6h3.9l3.7 4.8 3.7-4.8h3.9zm18.9 7.1l-2.7-4.5h-5.6v4.5H182v-14.8h13.3c.5 0 .9.2 1.2.5s.5.8.5 1.2v6.8c0 .5-.2.9-.5 1.2s-.8.5-1.2.5h-.3l2.7 4.5zm8.8 0H199v-14.8h3.4zm16.9-1.8c0 1-.8 1.7-1.7 1.8h-11.6c-.5 0-.9-.2-1.2-.5s-.5-.8-.5-1.2V156c0-.5.2-.9.5-1.2s.8-.5 1.2-.5h12.5v2.9h-10.8v8.9h8.2v-3h-3.4v-2.9h6.9zm16.4 1.8h-3.4v-5.9h-8.2v5.9h-3.4v-14.8h3.4v5.9h8.2v-5.9h3.4zm16.7-11.8h-5.8V169h-3.4v-11.8h-5.8v-2.9h15.1zm16.4 10c0 .5-.2.9-.5 1.2s-.8.5-1.2.5h-13.4V166h11.6v-3h-9.9c-1 0-1.7-.8-1.8-1.8V156c0-1 .8-1.7 1.8-1.8H268v2.9h-10.8v3h9.9c.5 0 .9.2 1.2.5s.5.8.5 1.2zm16.6 0c0 .5-.2.9-.5 1.2s-.8.5-1.2.5h-11.6c-.5 0-.9-.2-1.2-.5s-.5-.8-.5-1.2V156c0-1 .8-1.7 1.8-1.8h11.6c1 0 1.7.8 1.7 1.8zm16.7 0c0 .5-.2.9-.5 1.2s-.8.5-1.2.5h-11.6c-.5 0-.9-.2-1.2-.5s-.5-.8-.5-1.2v-13h3.4v11.9h8.2v-11.9h3.4zm16.5 2.5l-11.6-9.2v8.4h-3.4v-15.5l11.6 9.2v-8.4h3.4zm16.4-2.5c0 1-.8 1.7-1.8 1.8H320v-14.8h13.4c.5 0 .9.2 1.2.5s.5.8.5 1.2zm16.6 0c0 .5-.2.9-.5 1.2s-.8.5-1.2.5h-13.4V166h11.6v-3h-9.9c-1 0-1.7-.8-1.8-1.8V156c0-1 .8-1.7 1.8-1.8h12.5v2.9H340v3h9.9c.5 0 .9.2 1.2.5s.5.8.5 1.2v5.4z"/></g></svg>